<svg width="1887" height="915" viewBox="0 0 1887 915" fill="none" xmlns="http://www.w3.org/2000/svg">
<g opacity="0.5">
<g opacity="0.1">
<path d="M-41.3381 228.75C-1.24226 150.493 -19.9535 131.096 -23.2949 120.395C60.1045 166.947 98.8473 261.486 88.9733 302.993C58.9014 429.408 -1.24239 467.533 -41.3381 527.73C-96.5839 610.673 -72.0781 636.086 -67.4002 660.164C-207.736 535.757 -183.678 463.52 -163.63 405.329C-143.582 347.138 -50.4863 246.605 -41.3381 228.75Z" fill="white"/>
<path d="M239.333 248.816C345.54 112.368 301.481 44.1447 277.424 0C431.391 91.5 449.836 212.697 425.778 311.02C413.749 395.296 301.481 522.628 239.333 591.941C78.9493 770.813 111.026 880.219 147.112 915C-11.6672 823.5 -23.9633 675.548 -11.2662 614.013C-11.2662 528.934 144.058 371.217 239.333 248.816Z" fill="white"/>
<path d="M509.979 363.191C620.243 224.737 595.517 149.825 568.118 120.395C712.463 184.605 732.511 302.325 724.492 353.158C713.265 449.474 615.565 552.478 568.118 591.941C380.47 762.099 401.721 878.213 435.802 915C321.93 860.421 282.77 751.798 277.424 706.316C277.424 563.849 421.768 441.447 509.979 363.191Z" fill="white"/>
</g>
<g opacity="0.1">
<path d="M246.817 422.75C269.191 379.046 258.75 368.213 256.885 362.237C303.423 388.235 325.042 441.032 319.532 464.213C302.752 534.811 269.191 556.103 246.817 589.721C215.989 636.043 229.664 650.235 232.274 663.682C153.965 594.204 167.39 553.862 178.577 521.364C189.763 488.866 241.712 432.721 246.817 422.75Z" fill="white"/>
<path d="M403.434 433.956C462.699 357.754 438.114 319.654 424.689 295C510.605 346.1 520.897 413.785 507.473 468.695C500.761 515.761 438.114 586.872 403.434 625.581C313.939 725.476 331.838 786.576 351.974 806C263.374 754.9 256.512 672.273 263.597 637.908C263.597 590.394 350.27 502.314 403.434 433.956Z" fill="white"/>
<path d="M554.458 497.831C615.986 420.509 602.189 378.673 586.9 362.237C667.446 398.096 678.633 463.839 674.158 492.228C667.894 546.018 613.376 603.542 586.9 625.581C482.19 720.609 494.048 785.455 513.066 806C449.524 775.519 427.673 714.857 424.689 689.456C424.689 609.893 505.235 541.535 554.458 497.831Z" fill="white"/>
</g>
<g opacity="0.1">
<path d="M1275.52 217.5C1295.76 177.987 1286.31 168.193 1284.63 162.789C1326.74 186.295 1346.31 234.029 1341.32 254.987C1326.13 318.816 1295.76 338.066 1275.52 368.461C1247.62 410.34 1259.99 423.171 1262.35 435.329C1191.49 372.513 1203.64 336.039 1213.76 306.658C1223.88 277.276 1270.9 226.515 1275.52 217.5Z" fill="white"/>
<path d="M1417.25 227.632C1470.88 158.737 1448.63 124.289 1436.48 102C1514.23 148.2 1523.54 209.395 1511.4 259.039C1505.32 301.592 1448.63 365.884 1417.25 400.882C1336.26 491.197 1352.46 546.439 1370.68 564C1290.5 517.8 1284.29 443.096 1290.7 412.026C1290.7 369.068 1369.14 289.434 1417.25 227.632Z" fill="white"/>
<path d="M1553.92 285.382C1609.6 215.474 1597.11 177.649 1583.27 162.789C1656.16 195.211 1666.29 254.649 1662.24 280.316C1656.57 328.947 1607.23 380.956 1583.27 400.882C1488.52 486.797 1499.25 545.425 1516.46 564C1458.96 536.442 1439.18 481.596 1436.48 458.632C1436.48 386.697 1509.37 324.895 1553.92 285.382Z" fill="white"/>
</g>
<g opacity="0.1">
<path d="M1241.76 338.25C1275.47 272.48 1259.74 256.178 1256.93 247.184C1327.06 286.309 1359.64 365.762 1351.33 400.647C1326.05 506.89 1275.47 538.932 1241.76 589.524C1195.3 659.232 1215.91 680.59 1219.84 700.827C1101.84 596.27 1122.07 535.559 1138.92 486.654C1155.78 437.748 1234.07 353.256 1241.76 338.25Z" fill="white"/>
<path d="M1477.77 355.114C1567.08 240.439 1530.03 183.101 1509.8 146C1639.27 222.9 1654.78 324.759 1634.55 407.393C1624.43 478.221 1530.03 585.236 1477.77 643.489C1342.91 793.82 1369.88 885.769 1400.22 915C1266.71 838.1 1256.37 713.756 1267.04 662.039C1267.04 590.536 1397.65 457.985 1477.77 355.114Z" fill="white"/>
<path d="M1705.35 451.239C1798.07 334.877 1777.28 271.918 1754.24 247.184C1875.62 301.149 1892.47 400.085 1885.73 442.807C1876.29 523.754 1794.14 610.323 1754.24 643.489C1596.45 786.496 1614.32 884.083 1642.98 915C1547.22 869.13 1514.29 777.839 1509.8 739.614C1509.8 619.879 1631.18 517.009 1705.35 451.239Z" fill="white"/>
</g>
</g>
</svg>
